<svg width="86" height="6" viewBox="0 0 86 6" fill="none" xmlns="http://www.w3.org/2000/svg">
<path d="M84.8 0.900002C81.2 0.900002 79.3 1.5 77.6 2C75.9 2.5 74.3 3.1 71 3.1C67.7 3.1 66.1 2.6 64.4 2C62.6 1.4 60.8 0.900002 57.1 0.900002C53.5 0.900002 51.6 1.5 49.9 2C48.2 2.5 46.6 3.1 43.3 3.1C40 3.1 38.4 2.6 36.7 2C34.9 1.4 33.1 0.900002 29.5 0.900002C25.9 0.900002 24 1.5 22.3 2C20.6 2.5 19 3.1 15.7 3.1C12.4 3.1 10.8 2.6 9.1 2C7.3 1.4 5.5 0.900002 1.9 0.900002C1.3 0.900002 0.900002 1.3 0.900002 1.9C0.900002 2.5 1.3 2.9 1.9 2.9C5.2 2.9 6.8 3.4 8.5 4C10.3 4.6 12.1 5.1 15.7 5.1C19.3 5.1 21.2 4.5 22.9 4C24.6 3.5 26.2 2.9 29.5 2.9C32.8 2.9 34.4 3.4 36.1 4C37.9 4.6 39.7 5.1 43.3 5.1C46.9 5.1 48.8 4.5 50.5 4C52.2 3.5 53.8 2.9 57.1 2.9C60.4 2.9 62 3.4 63.7 4C65.5 4.6 67.3 5.1 70.9 5.1C74.5 5.1 76.4 4.5 78.2 4C79.9 3.5 81.5 2.9 84.8 2.9C85.4 2.9 85.8 2.5 85.8 1.9C85.8 1.3 85.4 0.900002 84.8 0.900002Z" fill="#C1564C"/>
</svg>
