<svg height="512pt" viewBox="-53 0 511 512" width="512pt" xmlns="http://www.w3.org/2000/svg"><path d="m373.832031 0h-341.332031c-17.644531 0-32 14.355469-32 32v448c0 17.644531 14.355469 32 32 32h341.332031c17.644531 0 32-14.355469 32-32v-448c0-17.644531-14.355469-32-32-32zm0 0" fill="#cfd8dc"/><path d="m373.832031 512h-341.332031c-17.644531 0-32-14.355469-32-32v-448c0-17.644531 14.355469-32 32-32h341.332031c17.644531 0 32 14.355469 32 32v448c0 17.644531-14.355469 32-32 32zm-341.332031-490.667969c-5.886719 0-10.667969 4.78125-10.667969 10.667969v448c0 5.867188 4.78125 10.667969 10.667969 10.667969h341.332031c5.890625 0 10.667969-4.800781 10.667969-10.667969v-448c0-5.886719-4.777344-10.667969-10.667969-10.667969zm0 0"/><path d="m75.167969 106.667969c-17.644531 0-32-14.359375-32-32 0-17.644531 14.355469-32 32-32 17.640625 0 32 14.355469 32 32 0 17.640625-14.359375 32-32 32zm0-42.667969c-5.890625 0-10.667969 4.777344-10.667969 10.667969 0 5.886719 4.777344 10.664062 10.667969 10.664062 5.886719 0 10.664062-4.777343 10.664062-10.664062 0-5.890625-4.777343-10.667969-10.664062-10.667969zm0 0"/><path d="m160.5 106.667969c-17.644531 0-32-14.359375-32-32 0-17.644531 14.355469-32 32-32s32 14.355469 32 32c0 17.640625-14.355469 32-32 32zm0-42.667969c-5.886719 0-10.667969 4.777344-10.667969 10.667969 0 5.886719 4.78125 10.664062 10.667969 10.664062s10.667969-4.777343 10.667969-10.664062c0-5.890625-4.78125-10.667969-10.667969-10.667969zm0 0"/><path d="m245.832031 106.667969c-17.640625 0-32-14.359375-32-32 0-17.644531 14.359375-32 32-32 17.644531 0 32 14.355469 32 32 0 17.640625-14.355469 32-32 32zm0-42.667969c-5.886719 0-10.664062 4.777344-10.664062 10.667969 0 5.886719 4.777343 10.664062 10.664062 10.664062 5.890625 0 10.667969-4.777343 10.667969-10.664062 0-5.890625-4.777344-10.667969-10.667969-10.667969zm0 0"/><path d="m331.167969 106.667969c-17.644531 0-32-14.359375-32-32 0-17.644531 14.355469-32 32-32 17.640625 0 32 14.355469 32 32 0 17.640625-14.359375 32-32 32zm0-42.667969c-5.890625 0-10.667969 4.777344-10.667969 10.667969 0 5.886719 4.777344 10.664062 10.667969 10.664062 5.886719 0 10.664062-4.777343 10.664062-10.664062 0-5.890625-4.777343-10.667969-10.664062-10.667969zm0 0"/><path d="m75.167969 64c-5.890625 0-10.667969-4.777344-10.667969-10.667969v-42.664062c0-5.890625 4.777344-10.667969 10.667969-10.667969 5.886719 0 10.664062 4.777344 10.664062 10.667969v42.664062c0 5.890625-4.777343 10.667969-10.664062 10.667969zm0 0"/><path d="m160.5 64c-5.886719 0-10.667969-4.777344-10.667969-10.667969v-42.664062c0-5.890625 4.78125-10.667969 10.667969-10.667969s10.667969 4.777344 10.667969 10.667969v42.664062c0 5.890625-4.78125 10.667969-10.667969 10.667969zm0 0"/><path d="m245.832031 64c-5.886719 0-10.664062-4.777344-10.664062-10.667969v-42.664062c0-5.890625 4.777343-10.667969 10.664062-10.667969 5.890625 0 10.667969 4.777344 10.667969 10.667969v42.664062c0 5.890625-4.777344 10.667969-10.667969 10.667969zm0 0"/><path d="m331.167969 64c-5.890625 0-10.667969-4.777344-10.667969-10.667969v-42.664062c0-5.890625 4.777344-10.667969 10.667969-10.667969 5.886719 0 10.664062 4.777344 10.664062 10.667969v42.664062c0 5.890625-4.777343 10.667969-10.664062 10.667969zm0 0"/><path d="m331.167969 234.667969h-256c-5.890625 0-10.667969-4.78125-10.667969-10.667969s4.777344-10.667969 10.667969-10.667969h256c5.886719 0 10.664062 4.78125 10.664062 10.667969s-4.777343 10.667969-10.664062 10.667969zm0 0"/><path d="m331.167969 320h-256c-5.890625 0-10.667969-4.777344-10.667969-10.667969 0-5.886719 4.777344-10.664062 10.667969-10.664062h256c5.886719 0 10.664062 4.777343 10.664062 10.664062 0 5.890625-4.777343 10.667969-10.664062 10.667969zm0 0"/><path d="m267.167969 405.332031h-192c-5.890625 0-10.667969-4.777343-10.667969-10.664062 0-5.890625 4.777344-10.667969 10.667969-10.667969h192c5.886719 0 10.664062 4.777344 10.664062 10.667969 0 5.886719-4.777343 10.664062-10.664062 10.664062zm0 0"/></svg>